%TF.GenerationSoftware,KiCad,Pcbnew,(6.0.10)*%
%TF.CreationDate,2023-02-17T09:13:03-08:00*%
%TF.ProjectId,exercise 1,65786572-6369-4736-9520-312e6b696361,rev?*%
%TF.SameCoordinates,Original*%
%TF.FileFunction,Copper,L1,Top*%
%TF.FilePolarity,Positive*%
%FSLAX46Y46*%
G04 Gerber Fmt 4.6, Leading zero omitted, Abs format (unit mm)*
G04 Created by KiCad (PCBNEW (6.0.10)) date 2023-02-17 09:13:03*
%MOMM*%
%LPD*%
G01*
G04 APERTURE LIST*
G04 Aperture macros list*
%AMRoundRect*
0 Rectangle with rounded corners*
0 $1 Rounding radius*
0 $2 $3 $4 $5 $6 $7 $8 $9 X,Y pos of 4 corners*
0 Add a 4 corners polygon primitive as box body*
4,1,4,$2,$3,$4,$5,$6,$7,$8,$9,$2,$3,0*
0 Add four circle primitives for the rounded corners*
1,1,$1+$1,$2,$3*
1,1,$1+$1,$4,$5*
1,1,$1+$1,$6,$7*
1,1,$1+$1,$8,$9*
0 Add four rect primitives between the rounded corners*
20,1,$1+$1,$2,$3,$4,$5,0*
20,1,$1+$1,$4,$5,$6,$7,0*
20,1,$1+$1,$6,$7,$8,$9,0*
20,1,$1+$1,$8,$9,$2,$3,0*%
G04 Aperture macros list end*
%TA.AperFunction,ComponentPad*%
%ADD10C,1.200000*%
%TD*%
%TA.AperFunction,ComponentPad*%
%ADD11C,2.400000*%
%TD*%
%TA.AperFunction,ComponentPad*%
%ADD12O,2.400000X2.400000*%
%TD*%
%TA.AperFunction,ComponentPad*%
%ADD13C,2.000000*%
%TD*%
%TA.AperFunction,ComponentPad*%
%ADD14C,1.700000*%
%TD*%
%TA.AperFunction,ComponentPad*%
%ADD15R,1.800000X1.800000*%
%TD*%
%TA.AperFunction,ComponentPad*%
%ADD16C,1.800000*%
%TD*%
%TA.AperFunction,ComponentPad*%
%ADD17RoundRect,0.250000X-0.350000X-0.625000X0.350000X-0.625000X0.350000X0.625000X-0.350000X0.625000X0*%
%TD*%
%TA.AperFunction,ComponentPad*%
%ADD18O,1.200000X1.750000*%
%TD*%
%TA.AperFunction,Conductor*%
%ADD19C,0.254000*%
%TD*%
%TA.AperFunction,Conductor*%
%ADD20C,0.508000*%
%TD*%
G04 APERTURE END LIST*
D10*
%TO.P,C1,1*%
%TO.N,Net-(C1-Pad1)*%
X165100000Y-83820000D03*
%TO.P,C1,2*%
%TO.N,Net-(C1-Pad2)*%
X165100000Y-85820000D03*
%TD*%
D11*
%TO.P,R2,1*%
%TO.N,Net-(J1-Pad1)*%
X96520000Y-58420000D03*
D12*
%TO.P,R2,2*%
%TO.N,Net-(R2-Pad2)*%
X116840000Y-58420000D03*
%TD*%
D13*
%TO.P,SW1,*%
%TO.N,*%
X148282500Y-56417500D03*
X136282500Y-62417500D03*
X148282500Y-62417500D03*
X136282500Y-56417500D03*
D14*
%TO.P,SW1,1,A*%
%TO.N,unconnected-(SW1-Pad1)*%
X138282500Y-58167500D03*
%TO.P,SW1,2,B*%
%TO.N,Net-(R2-Pad2)*%
X142282500Y-58167500D03*
%TO.P,SW1,3,C*%
%TO.N,Net-(C1-Pad1)*%
X146282500Y-58167500D03*
%TD*%
D15*
%TO.P,D1,1,K*%
%TO.N,Net-(C1-Pad2)*%
X200660000Y-83820000D03*
D16*
%TO.P,D1,2,A*%
%TO.N,Net-(D1-Pad2)*%
X203200000Y-83820000D03*
%TD*%
D11*
%TO.P,R1,1*%
%TO.N,Net-(C1-Pad1)*%
X203200000Y-50800000D03*
D12*
%TO.P,R1,2*%
%TO.N,Net-(D1-Pad2)*%
X203200000Y-71120000D03*
%TD*%
D17*
%TO.P,J1,1,Pin_1*%
%TO.N,Net-(J1-Pad1)*%
X96520000Y-83820000D03*
D18*
%TO.P,J1,2,Pin_2*%
%TO.N,Net-(C1-Pad2)*%
X98520000Y-83820000D03*
%TD*%
D19*
%TO.N,Net-(C1-Pad1)*%
X165100000Y-76985000D02*
X165100000Y-83820000D01*
X177015000Y-76985000D02*
X203200000Y-50800000D01*
X165100000Y-76985000D02*
X177015000Y-76985000D01*
X146282500Y-58167500D02*
X165100000Y-76985000D01*
D20*
%TO.N,Net-(C1-Pad2)*%
X98520000Y-83820000D02*
X163100000Y-83820000D01*
X163100000Y-83820000D02*
X165100000Y-85820000D01*
X198660000Y-85820000D02*
X200660000Y-83820000D01*
X165100000Y-85820000D02*
X198660000Y-85820000D01*
D19*
%TO.N,Net-(D1-Pad2)*%
X203200000Y-71120000D02*
X203200000Y-83820000D01*
D20*
%TO.N,Net-(J1-Pad1)*%
X96520000Y-58420000D02*
X96520000Y-83820000D01*
%TO.N,Net-(R2-Pad2)*%
X140830000Y-59620000D02*
X142282500Y-58167500D01*
X116840000Y-58420000D02*
X118040000Y-59620000D01*
X118040000Y-59620000D02*
X140830000Y-59620000D01*
%TD*%
M02*
